<svg version="1.1" id="Layer_1" xmlns="http://www.w3.org/2000/svg" xmlns:xlink="http://www.w3.org/1999/xlink" x="0px" y="0px"
	 width="100%" viewBox="0 0 1024 1024" enable-background="new 0 0 1024 1024" xml:space="preserve">
<path fill="#000000" opacity="1.000000" stroke="none" 
	d="
M270.956909,688.040466 
	C265.179871,682.244629 259.816010,676.523865 254.061081,671.228149 
	C250.730408,668.163208 251.151443,666.273499 254.210114,663.242737 
	C295.862457,621.970276 337.394989,580.576904 378.949066,539.205322 
	C385.442902,532.739990 391.938385,526.275391 398.356720,519.735474 
	C403.800934,514.188110 403.806396,513.963989 398.498779,508.627686 
	C377.819824,487.837097 357.095673,467.091461 336.404755,446.312714 
	C309.011871,418.803619 281.663910,391.249573 254.205002,363.806580 
	C251.412552,361.015778 250.924423,359.256226 254.043198,356.160522 
	C280.885284,329.517059 307.615173,302.759369 334.199554,275.858887 
	C337.617920,272.399872 339.592438,272.456512 342.961456,275.857544 
	C367.817017,300.949158 392.840790,325.874329 417.839294,350.824127 
	C470.195496,403.078278 522.568787,455.315308 574.933655,507.560852 
	C575.995178,508.619873 576.974060,509.771545 578.103271,510.751068 
	C581.111389,513.360413 580.535217,515.447205 577.847107,518.139343 
	C502.625641,593.476257 427.477356,668.886230 352.298370,744.265625 
	C349.005798,747.566956 345.458527,750.614685 342.177643,753.926880 
	C340.100342,756.023926 338.522980,756.083435 336.368805,753.905640 
	C314.691589,731.991821 292.938110,710.153442 270.956909,688.040466 
z"/>
<path fill="#000000" opacity="1.000000" stroke="none" 
	d="
M727.486694,424.513153 
	C756.245850,453.282288 784.713745,481.842743 813.337341,510.246338 
	C816.539001,513.423401 816.803772,515.294373 813.456970,518.631531 
	C742.770325,589.114685 672.195435,659.709900 601.598877,730.283386 
	C596.514099,735.366455 596.497070,735.384094 591.598572,730.450806 
	C568.113647,706.799561 544.636597,683.140625 521.162415,659.478699 
	C516.187317,654.463806 516.218018,654.472595 521.226868,649.460876 
	C550.193665,620.477417 579.114746,591.448120 608.125854,562.509155 
	C622.397339,548.273071 636.837341,534.205994 651.184570,520.045654 
	C656.883423,514.421021 656.836182,514.326172 651.216919,508.644318 
	C607.859558,464.803223 564.553162,420.911469 521.085754,377.179779 
	C517.750061,373.823761 518.005310,372.079865 521.212585,368.910980 
	C544.803467,345.602020 568.199829,322.096252 591.669434,298.664490 
	C596.352844,293.988647 596.413879,293.982544 601.133118,298.680481 
	C643.175659,340.533264 685.206848,382.397491 727.486694,424.513153 
z"/>
</svg>